# Blender v3.2.2 OBJ File: 'slope.blend'
# www.blender.org
mtllib slope.mtl
o Cube
v 3.555553 0.000000 -2.650864
v 3.555553 0.000000 2.650864
v -3.555553 0.000000 -2.650864
v -3.555553 0.000000 2.650864
v 1.890516 2.000000 2.650864
v 1.890516 2.000000 -2.650864
vt 0.625000 0.849420
vt 0.125000 0.750000
vt 0.375000 0.750000
vt 0.375000 0.500000
vt 0.125000 0.500000
vt 0.625000 0.400580
vn 0.0000 0.0000 1.0000
vn 0.0000 -1.0000 0.0000
vn 0.7685 0.6398 0.0000
vn -0.3447 0.9387 0.0000
vn 0.0000 0.0000 -1.0000
usemtl Material
s off
f 5/1/1 4/2/1 2/3/1
f 1/4/2 4/2/2 3/5/2
f 6/6/3 2/3/3 1/4/3
f 4/2/4 6/6/4 3/5/4
f 3/5/5 6/6/5 1/4/5
f 1/4/2 2/3/2 4/2/2
f 6/6/3 5/1/3 2/3/3
f 4/2/4 5/1/4 6/6/4
